<svg width="141" height="45" viewBox="0 0 141 45" fill="none" xmlns="http://www.w3.org/2000/svg">
<path d="M7.15 44.3125C5.68333 41.8458 4.48333 39.4125 3.55 37.0125C2.61667 34.6458 1.93333 32.2458 1.5 29.8125C1.06667 27.3458 0.85 24.7958 0.85 22.1625C0.85 19.4958 1.06667 16.9458 1.5 14.5125C1.93333 12.0792 2.61667 9.67917 3.55 7.3125C4.48333 4.94583 5.68333 2.52916 7.15 0.0624979H11.25C9.51667 3.82917 8.21667 7.54583 7.35 11.2125C6.51667 14.8458 6.1 18.4958 6.1 22.1625C6.1 25.8292 6.51667 29.4958 7.35 33.1625C8.21667 36.7958 9.51667 40.5125 11.25 44.3125H7.15ZM15.148 17.8125V14.1125H39.848V17.8125H15.148ZM15.148 27.7625V24.1125H39.848V27.7625H15.148ZM46.5785 14.2125L45.3285 0.0624979H51.2285L49.9785 14.2125H46.5785ZM54.1008 35.3125L68.4008 16.2625V18.3625L54.7008 0.0624979H60.8008L71.4008 14.6625H69.8008L80.3008 0.0624979H86.4508L72.7508 18.3625V16.2625L87.0508 35.3125H80.9008L69.6508 19.9125H71.5008L60.2008 35.3125H54.1008ZM91.2074 14.2125L89.9574 0.0624979H95.8574L94.6074 14.2125H91.2074ZM101.33 17.8125V14.1125H126.03V17.8125H101.33ZM101.33 27.7625V24.1125H126.03V27.7625H101.33ZM134.01 44.3125H129.91C131.643 40.5458 132.943 36.8292 133.81 33.1625C134.677 29.4958 135.11 25.8292 135.11 22.1625C135.11 18.5292 134.677 14.8792 133.81 11.2125C132.943 7.54583 131.643 3.82917 129.91 0.0624979H134.01C135.51 2.52916 136.727 4.94583 137.66 7.3125C138.593 9.67917 139.26 12.0958 139.66 14.5625C140.093 16.9958 140.31 19.5292 140.31 22.1625C140.31 24.8292 140.093 27.3958 139.66 29.8625C139.26 32.2958 138.593 34.6958 137.66 37.0625C136.727 39.4292 135.51 41.8458 134.01 44.3125Z" fill="#F8F8F8"/>
</svg>
