<svg width="202" height="40" viewBox="0 0 202 40" fill="none" xmlns="http://www.w3.org/2000/svg">
<path fill-rule="evenodd" clip-rule="evenodd" d="M37.8897 3.01172L29.065 9.72983L38.4653 19.4596L40 33.4358L31.1753 26.9498L32.71 21.3898L27.4342 8.49436L37.8897 3.01172Z" fill="#800000"/>
<path fill-rule="evenodd" clip-rule="evenodd" d="M26.5703 12.5867L14.9645 18.5327L15.0596 18.0693L19.952 13.8995L26.5703 12.5867V12.5867Z" fill="#FF0000"/>
<path fill-rule="evenodd" clip-rule="evenodd" d="M19.0929 14.517L26.479 12.7407L32.81 21.6985L28.2059 8.41699L24.0814 10.4245L19.0929 14.517V14.517Z" fill="#AA0000"/>
<path fill-rule="evenodd" clip-rule="evenodd" d="M37.7936 3.16576L24.1726 10.502L17.6494 0.154053L37.7936 3.16576V3.16576Z" fill="#FFAAAA"/>
<path fill-rule="evenodd" clip-rule="evenodd" d="M17.5543 0L24.1726 10.5019L14.9645 18.2234L17.5543 0V0Z" fill="#FF5555"/>
<path fill-rule="evenodd" clip-rule="evenodd" d="M22.2544 30.8876L17.3621 33.668L8.53735 24.0929L15.5401 19.3823L22.2544 30.8876V30.8876Z" fill="#AA0000"/>
<path fill-rule="evenodd" clip-rule="evenodd" d="M8.44129 24.0928L0 31.1969L17.5543 33.6679L8.44129 24.0928Z" fill="#FFAAAA"/>
<path fill-rule="evenodd" clip-rule="evenodd" d="M26.5702 12.5867L33.0934 22.0844L19.8558 28.4165L15.0596 18.5327L26.5702 12.5867Z" fill="#FFAAAA"/>
<path fill-rule="evenodd" clip-rule="evenodd" d="M32.9973 22.0071L19.8558 28.4165L27.242 39.9991L32.9973 22.0071V22.0071Z" fill="#D40000"/>
<path fill-rule="evenodd" clip-rule="evenodd" d="M14.7027 19.9001L8.25696 24.1631L17.5779 33.7453C17.5779 33.7453 13.9348 24.07 14.7027 19.9001Z" fill="#FF5555"/>
<path d="M48.234 12.4V14.776H51.618V25H54.102V14.776H57.504V12.4H48.234ZM68.4847 25L65.6947 20.248C67.1527 19.582 68.1247 18.142 68.1247 16.576C68.1247 15.424 67.7107 14.434 66.9007 13.624C66.0907 12.814 65.1007 12.4 63.9307 12.4H58.8907V25H61.3747V20.626H63.2647L65.8027 25H68.4847ZM63.9307 14.722C64.8667 14.722 65.6407 15.55 65.6407 16.576C65.6407 17.602 64.8667 18.448 63.9307 18.448H61.3747V14.722H63.9307ZM74.5575 25.252C75.9795 25.252 77.1315 24.856 78.0315 24.064C78.9315 23.272 79.3815 22.21 79.3815 20.878V12.4H76.8975V20.68C76.8975 21.994 76.1595 22.822 74.5575 22.822C72.9555 22.822 72.2175 21.994 72.2175 20.68V12.4H69.7515V20.878C69.7515 22.21 70.2015 23.272 71.1015 24.064C72.0015 24.856 73.1535 25.252 74.5575 25.252ZM88.5899 12.4L85.8539 17.656L83.1179 12.4H80.3099L84.6119 20.086V25H87.0779V20.086L91.3979 12.4H88.5899ZM95.0895 19.798H99.8595V17.458H95.0895V14.776H100.31V12.4H92.6055V25H100.4V22.624H95.0895V19.798ZM109.44 20.086L104.04 12.4H102.15V25H104.634V17.296L110.034 25H111.924V12.4H109.44V20.086ZM113.326 12.4V14.776H116.71V25H119.194V14.776H122.596V12.4H113.326ZM133.577 25L130.787 20.248C132.245 19.582 133.217 18.142 133.217 16.576C133.217 15.424 132.803 14.434 131.993 13.624C131.183 12.814 130.193 12.4 129.023 12.4H123.983V25H126.467V20.626H128.357L130.895 25H133.577ZM129.023 14.722C129.959 14.722 130.733 15.55 130.733 16.576C130.733 17.602 129.959 18.448 129.023 18.448H126.467V14.722H129.023ZM145.839 25L141.411 12.4H138.333L133.923 25H136.605L137.361 22.732H142.383L143.139 25H145.839ZM139.881 15.262L141.609 20.41H138.153L139.881 15.262ZM154.353 20.086L148.953 12.4H147.063V25H149.547V17.296L154.947 25H156.837V12.4H154.353V20.086ZM166.338 17.404H161.658V12.4H159.174V25H161.658V19.78H166.338V25H168.804V12.4H166.338V17.404ZM178.885 25V22.606H174.151L176.617 20.14C178.003 18.754 178.687 17.422 178.687 16.108C178.687 14.902 178.273 13.93 177.463 13.228C176.653 12.508 175.663 12.148 174.529 12.148C172.747 12.148 171.163 13.084 170.371 14.812L172.459 16.036C172.909 15.046 173.611 14.56 174.565 14.56C175.519 14.56 176.203 15.208 176.203 16.198C176.203 16.864 175.717 17.71 174.763 18.718L170.461 23.146V25H178.885ZM188.147 20.554V17.566H185.645V20.554H182.369L186.545 12.4H183.881L179.687 20.554V22.858H185.645V25H188.147V22.858H189.497V20.554H188.147ZM198.084 17.404H193.404V12.4H190.92V25H193.404V19.78H198.084V25H200.55V12.4H198.084V17.404Z" fill="#F8F8F8"/>
</svg>
