<svg width="40" height="40" viewBox="0 0 40 40" fill="none" xmlns="http://www.w3.org/2000/svg">
<path fill-rule="evenodd" clip-rule="evenodd" d="M37.8897 3.01172L29.065 9.72983L38.4653 19.4596L40 33.4358L31.1753 26.9498L32.71 21.3898L27.4342 8.49436L37.8897 3.01172Z" fill="#800000"/>
<path fill-rule="evenodd" clip-rule="evenodd" d="M26.5703 12.5867L14.9645 18.5327L15.0596 18.0693L19.952 13.8995L26.5703 12.5867V12.5867Z" fill="#FF0000"/>
<path fill-rule="evenodd" clip-rule="evenodd" d="M19.0929 14.517L26.479 12.7407L32.81 21.6985L28.2059 8.41699L24.0814 10.4245L19.0929 14.517V14.517Z" fill="#AA0000"/>
<path fill-rule="evenodd" clip-rule="evenodd" d="M37.7936 3.16576L24.1726 10.502L17.6494 0.154053L37.7936 3.16576V3.16576Z" fill="#FFAAAA"/>
<path fill-rule="evenodd" clip-rule="evenodd" d="M17.5543 0L24.1726 10.5019L14.9645 18.2234L17.5543 0V0Z" fill="#FF5555"/>
<path fill-rule="evenodd" clip-rule="evenodd" d="M22.2544 30.8876L17.3621 33.668L8.53735 24.0929L15.5401 19.3823L22.2544 30.8876V30.8876Z" fill="#AA0000"/>
<path fill-rule="evenodd" clip-rule="evenodd" d="M8.44129 24.0928L0 31.1969L17.5543 33.6679L8.44129 24.0928Z" fill="#FFAAAA"/>
<path fill-rule="evenodd" clip-rule="evenodd" d="M26.5702 12.5867L33.0934 22.0844L19.8558 28.4165L15.0596 18.5327L26.5702 12.5867Z" fill="#FFAAAA"/>
<path fill-rule="evenodd" clip-rule="evenodd" d="M32.9973 22.0071L19.8558 28.4165L27.242 39.9991L32.9973 22.0071V22.0071Z" fill="#D40000"/>
<path fill-rule="evenodd" clip-rule="evenodd" d="M14.7027 19.9001L8.25696 24.1631L17.5779 33.7453C17.5779 33.7453 13.9348 24.07 14.7027 19.9001Z" fill="#FF5555"/>
</svg>
